<svg width="24" height="24" fill="none" xmlns="http://www.w3.org/2000/svg"><circle cx="12" cy="12" r="11" stroke="#fff" stroke-opacity=".35" stroke-width="2"/><path d="M8.569 9.232a.296.296 0 00.301.31h1.031c.173 0 .31-.142.333-.313.112-.82.675-1.418 1.677-1.418.858 0 1.643.429 1.643 1.46 0 .794-.468 1.159-1.206 1.714-.842.611-1.508 1.325-1.46 2.484l.003.271a.312.312 0 00.313.307h1.014a.312.312 0 00.312-.312v-.131c0-.898.341-1.159 1.263-1.858.76-.579 1.555-1.221 1.555-2.57 0-1.889-1.595-2.801-3.342-2.801-1.583 0-3.318.737-3.437 2.857zm1.946 7.204c0 .666.531 1.159 1.263 1.159.76 0 1.285-.492 1.285-1.159 0-.69-.525-1.175-1.287-1.175-.73 0-1.26.485-1.26 1.175z" fill="#fff" fill-opacity=".35"/></svg>