<svg width="20" height="20" fill="none" xmlns="http://www.w3.org/2000/svg"><path d="M10 20c5.523 0 10-4.477 10-10S15.523 0 10 0 0 4.477 0 10s4.477 10 10 10z" fill="#2A5F9E"/><path d="M10 3.267l.233.733H11l-.6.467.233.733L10 4.733l-.633.467.233-.733L9 4h.767L10 3.267zM10 14.6l.233.733H11l-.6.434.233.766-.633-.466-.633.466.233-.766-.6-.434h.767L10 14.6zm2.8-.933l.233.733h.8l-.633.467.233.733-.633-.467-.633.467.266-.733-.633-.467h.767l.233-.733zm1.933-1.934l.234.734h.8l-.634.466.234.734-.634-.467-.633.467.267-.734-.634-.466h.767l.233-.734zm.934-2.8l.233.734h.767l-.634.466.234.734-.6-.467-.634.467.234-.734-.634-.466h.767l.267-.734zM14.733 6.1l.234.767h.8l-.634.433.234.733-.634-.433-.633.433.267-.733-.634-.433h.767l.233-.767zM12.8 4.167l.233.766h.8l-.633.434.233.733-.633-.433-.633.433.266-.733-.633-.434h.767l.233-.766zm-5.6 9.5l-.233.733h-.8l.633.467-.233.733.633-.467.633.467-.266-.733.633-.467h-.767l-.233-.733zm-1.933-1.934l-.234.734h-.8l.634.466-.234.734.634-.467.633.467-.267-.734.634-.466H5.5l-.233-.734zm-.934-2.8l-.233.734h-.767l.634.466-.234.734.6-.467.634.467-.234-.734.634-.466H4.6l-.267-.734zM5.267 6.1l-.234.767h-.8l.634.433-.234.733.634-.433.633.433-.267-.733.634-.433H5.5L5.267 6.1zM7.2 4.167l-.233.766h-.8l.633.434-.233.733.633-.433.633.433-.266-.733.633-.434h-.767L7.2 4.167z" fill="#FFCE31"/></svg>