<svg width="20" height="20" fill="none" xmlns="http://www.w3.org/2000/svg"><path d="M15.333 1.533C13.767.567 11.967 0 10 0v1.533h5.333z" fill="#ED4C5C"/><path d="M10 3.067h7.2c-.567-.567-1.2-1.1-1.867-1.534H10v1.534z" fill="#fff"/><path d="M10 4.6h8.433a11.082 11.082 0 00-1.2-1.533H10V4.6z" fill="#ED4C5C"/><path d="M10 6.133h9.233c-.233-.533-.5-1.066-.8-1.533H10v1.533z" fill="#fff"/><path d="M10 7.667h9.733a11.77 11.77 0 00-.5-1.534H10v1.534z" fill="#ED4C5C"/><path d="M10 9.233h9.967c-.034-.533-.134-1.033-.234-1.533H10v1.533z" fill="#fff"/><path d="M19.967 9.233H10V10H0c0 .267 0 .5.033.767h19.934C20 10.5 20 10.267 20 10s0-.533-.033-.767z" fill="#ED4C5C"/><path d="M.267 12.3h19.466c.134-.5.2-1 .234-1.533H.033c.034.5.1 1.033.234 1.533z" fill="#fff"/><path d="M.767 13.833h18.466c.2-.5.367-1 .5-1.533H.267c.133.533.3 1.033.5 1.533z" fill="#ED4C5C"/><path d="M1.567 15.367h16.866c.3-.5.567-1 .8-1.534H.767c.233.534.5 1.034.8 1.534z" fill="#fff"/><path d="M2.767 16.9h14.466c.434-.467.867-1 1.2-1.533H1.567c.333.566.766 1.066 1.2 1.533z" fill="#ED4C5C"/><path d="M4.633 18.433h10.734c.7-.433 1.3-.966 1.866-1.533H2.767c.566.6 1.2 1.1 1.866 1.533z" fill="#fff"/><path d="M10 20a9.92 9.92 0 005.367-1.567H4.633A9.92 9.92 0 0010 20z" fill="#ED4C5C"/><path d="M4.667 1.533c-.7.434-1.334.967-1.9 1.534-.467.466-.867 1-1.2 1.533-.3.5-.6 1-.8 1.533-.2.5-.367 1-.5 1.534-.134.5-.2 1-.234 1.533C0 9.467 0 9.733 0 10h10V0C8.033 0 6.233.567 4.667 1.533z" fill="#428BC1"/><path d="M7.667.333l.166.5h.5l-.4.334.134.5-.4-.3-.4.3.133-.5L7 .833h.5l.167-.5zm1.333 2l.167.5h.5l-.4.334.133.5-.4-.3-.4.3.133-.5-.4-.333h.5l.167-.5zm-2.667 0l.167.5H7l-.4.334.133.5-.4-.3-.4.3.134-.5-.4-.333h.5l.166-.5zm1.334 2l.166.5h.5l-.4.334.134.5-.4-.3-.4.3.133-.5-.4-.333h.5l.167-.5zM5 4.333l.167.5h.5l-.4.334.133.5-.4-.3-.4.3.133-.5-.4-.333h.5l.167-.5zm-2.667 0l.167.5H3l-.4.334.133.5-.4-.3-.4.3.134-.5-.4-.333h.5l.166-.5zm6.667 2l.167.5h.5l-.4.334.133.5-.4-.3-.4.3.133-.5-.4-.333h.5l.167-.5zm-2.667 0l.167.5H7l-.4.334.133.5-.4-.3-.4.3.134-.5-.4-.333h.5l.166-.5zm-2.666 0l.166.5h.5l-.4.334.134.5-.4-.3-.4.3.133-.5-.4-.333h.5l.167-.5zm4 2.001l.166.5h.5l-.4.333.134.5-.4-.3-.4.3.133-.5-.4-.333h.5l.167-.5zM5 8.334l.167.5h.5l-.4.333.133.5-.4-.3-.4.3.133-.5-.4-.333h.5l.167-.5zm-2.667 0l.167.5H3l-.4.333.133.5-.4-.3-.4.3.134-.5-.4-.333h.5l.166-.5zm.934-4.667l.4-.3.4.3-.167-.5.4-.333h-.5l-.133-.5-.167.5h-.467l.4.3-.166.533zm-2.667 4l.4-.3.4.3-.167-.5.4-.333h-.466L1 6.333l-.167.5H.5c0 .033-.033.066-.033.1l.266.2-.133.533z" fill="#fff"/></svg>