<svg width="18" height="18" fill="none" xmlns="http://www.w3.org/2000/svg"><path d="M8.998 5.999A3.008 3.008 0 005.996 9a3.008 3.008 0 003.002 3.001A3.008 3.008 0 0011.999 9a3.008 3.008 0 00-3.001-3.001zM17.999 9c0-1.243.012-2.474-.058-3.715-.07-1.441-.399-2.72-1.452-3.774C15.433.455 14.156.13 12.715.06 11.472-.01 10.241.001 9 .001 7.757 0 6.526-.011 5.285.059c-1.441.07-2.72.399-3.774 1.452C.455 2.567.13 3.844.06 5.285-.01 6.528.001 7.759.001 9c0 1.24-.012 2.474.058 3.715.07 1.441.399 2.72 1.452 3.774 1.056 1.055 2.333 1.382 3.774 1.452 1.243.07 2.474.058 3.715.058 1.243 0 2.474.012 3.715-.058 1.441-.07 2.72-.399 3.774-1.452 1.055-1.056 1.382-2.333 1.452-3.774.072-1.24.058-2.472.058-3.715zm-9.001 4.618A4.611 4.611 0 014.38 9a4.611 4.611 0 014.618-4.618A4.611 4.611 0 0113.616 9a4.611 4.611 0 01-4.618 4.618zm4.807-8.347a1.077 1.077 0 01-1.079-1.078c0-.597.482-1.078 1.079-1.078a1.077 1.077 0 01.413 2.075 1.078 1.078 0 01-.413.081z" fill="#fff" fill-opacity=".25"/></svg>