<svg width="18" height="18" fill="none" xmlns="http://www.w3.org/2000/svg"><path fill-rule="evenodd" clip-rule="evenodd" d="M18 9A9 9 0 110 9a9 9 0 0118 0zM9.322 6.644c-.875.364-2.624 1.118-5.248 2.26-.426.17-.65.336-.67.498-.034.275.31.383.776.529.064.02.13.04.197.063.46.149 1.078.324 1.399.33.292.007.617-.114.976-.36 2.451-1.655 3.717-2.491 3.796-2.509.056-.013.134-.03.187.018.052.046.047.135.042.159-.035.145-1.38 1.396-2.078 2.045a21.18 21.18 0 00-.402.378c-.071.072-.143.142-.212.209-.428.41-.747.72.018 1.224.367.242.662.442.955.642.32.218.64.435 1.053.707.105.069.206.14.304.21.373.266.708.505 1.122.467.24-.022.49-.248.615-.922.298-1.595.885-5.048 1.02-6.471a1.577 1.577 0 00-.015-.354.38.38 0 00-.129-.244.587.587 0 00-.348-.105c-.339.006-.858.187-3.357 1.226z" fill="#fff" fill-opacity=".25"/></svg>